<mxfile host="app.diagrams.net" modified="2023-08-31T21:47:49.779Z" agent="Mozilla/5.0 (Windows NT 10.0; Win64; x64) AppleWebKit/537.36 (KHTML, like Gecko) Chrome/116.0.0.0 Safari/537.36" etag="XgETVjKeGdDJ3a9VqB4b" version="21.6.9" type="device">
  <diagram name="Page-1" id="92cY7opVzlvimclt7XXD">
    <mxGraphModel dx="1434" dy="790" grid="1" gridSize="10" guides="1" tooltips="1" connect="1" arrows="1" fold="1" page="1" pageScale="1" pageWidth="850" pageHeight="1100" math="0" shadow="0">
      <root>
        <mxCell id="0" />
        <mxCell id="1" parent="0" />
        <mxCell id="g5eJ_ZQ_Ws9OvqG0GfGR-8" style="edgeStyle=orthogonalEdgeStyle;rounded=0;orthogonalLoop=1;jettySize=auto;html=1;entryX=0;entryY=0.5;entryDx=0;entryDy=0;entryPerimeter=0;" parent="1" source="g5eJ_ZQ_Ws9OvqG0GfGR-1" target="g5eJ_ZQ_Ws9OvqG0GfGR-6" edge="1">
          <mxGeometry relative="1" as="geometry" />
        </mxCell>
        <mxCell id="EBtbRSLZ2DDw6ekeUOOA-2" style="edgeStyle=orthogonalEdgeStyle;rounded=0;orthogonalLoop=1;jettySize=auto;html=1;" edge="1" parent="1" source="g5eJ_ZQ_Ws9OvqG0GfGR-1">
          <mxGeometry relative="1" as="geometry">
            <mxPoint x="765" y="330" as="targetPoint" />
          </mxGeometry>
        </mxCell>
        <mxCell id="g5eJ_ZQ_Ws9OvqG0GfGR-1" value="Agenda" style="rounded=0;whiteSpace=wrap;html=1;" parent="1" vertex="1">
          <mxGeometry x="705" y="210" width="120" height="60" as="geometry" />
        </mxCell>
        <mxCell id="g5eJ_ZQ_Ws9OvqG0GfGR-10" style="edgeStyle=orthogonalEdgeStyle;rounded=0;orthogonalLoop=1;jettySize=auto;html=1;entryX=0;entryY=0.5;entryDx=0;entryDy=0;entryPerimeter=0;" parent="1" source="g5eJ_ZQ_Ws9OvqG0GfGR-2" target="g5eJ_ZQ_Ws9OvqG0GfGR-9" edge="1">
          <mxGeometry relative="1" as="geometry" />
        </mxCell>
        <mxCell id="EBtbRSLZ2DDw6ekeUOOA-1" style="edgeStyle=orthogonalEdgeStyle;rounded=0;orthogonalLoop=1;jettySize=auto;html=1;entryX=0.5;entryY=1;entryDx=0;entryDy=0;" edge="1" parent="1" source="g5eJ_ZQ_Ws9OvqG0GfGR-2" target="g5eJ_ZQ_Ws9OvqG0GfGR-1">
          <mxGeometry relative="1" as="geometry" />
        </mxCell>
        <mxCell id="g5eJ_ZQ_Ws9OvqG0GfGR-2" value="Voting Session" style="rounded=0;whiteSpace=wrap;html=1;" parent="1" vertex="1">
          <mxGeometry x="705" y="330" width="120" height="60" as="geometry" />
        </mxCell>
        <mxCell id="g5eJ_ZQ_Ws9OvqG0GfGR-4" style="edgeStyle=orthogonalEdgeStyle;rounded=0;orthogonalLoop=1;jettySize=auto;html=1;entryX=0;entryY=0.5;entryDx=0;entryDy=0;" parent="1" source="g5eJ_ZQ_Ws9OvqG0GfGR-3" target="g5eJ_ZQ_Ws9OvqG0GfGR-1" edge="1">
          <mxGeometry relative="1" as="geometry">
            <Array as="points">
              <mxPoint x="653" y="280" />
              <mxPoint x="653" y="240" />
            </Array>
          </mxGeometry>
        </mxCell>
        <mxCell id="g5eJ_ZQ_Ws9OvqG0GfGR-5" style="edgeStyle=orthogonalEdgeStyle;rounded=0;orthogonalLoop=1;jettySize=auto;html=1;entryX=0;entryY=0.5;entryDx=0;entryDy=0;" parent="1" source="g5eJ_ZQ_Ws9OvqG0GfGR-3" target="g5eJ_ZQ_Ws9OvqG0GfGR-2" edge="1">
          <mxGeometry relative="1" as="geometry">
            <Array as="points">
              <mxPoint x="653" y="320" />
              <mxPoint x="653" y="360" />
            </Array>
          </mxGeometry>
        </mxCell>
        <mxCell id="g5eJ_ZQ_Ws9OvqG0GfGR-12" style="edgeStyle=orthogonalEdgeStyle;rounded=0;orthogonalLoop=1;jettySize=auto;html=1;" parent="1" source="g5eJ_ZQ_Ws9OvqG0GfGR-3" target="g5eJ_ZQ_Ws9OvqG0GfGR-11" edge="1">
          <mxGeometry relative="1" as="geometry" />
        </mxCell>
        <mxCell id="g5eJ_ZQ_Ws9OvqG0GfGR-3" value="Associate" style="rounded=0;whiteSpace=wrap;html=1;" parent="1" vertex="1">
          <mxGeometry x="480" y="270" width="120" height="60" as="geometry" />
        </mxCell>
        <mxCell id="g5eJ_ZQ_Ws9OvqG0GfGR-6" value="" style="shape=cylinder3;whiteSpace=wrap;html=1;boundedLbl=1;backgroundOutline=1;size=15;" parent="1" vertex="1">
          <mxGeometry x="880" y="210" width="40" height="60" as="geometry" />
        </mxCell>
        <mxCell id="g5eJ_ZQ_Ws9OvqG0GfGR-9" value="" style="shape=cylinder3;whiteSpace=wrap;html=1;boundedLbl=1;backgroundOutline=1;size=15;" parent="1" vertex="1">
          <mxGeometry x="880" y="330" width="40" height="60" as="geometry" />
        </mxCell>
        <mxCell id="g5eJ_ZQ_Ws9OvqG0GfGR-11" value="" style="shape=cylinder3;whiteSpace=wrap;html=1;boundedLbl=1;backgroundOutline=1;size=15;" parent="1" vertex="1">
          <mxGeometry x="517.5" y="390" width="45" height="60" as="geometry" />
        </mxCell>
        <mxCell id="g5eJ_ZQ_Ws9OvqG0GfGR-23" style="edgeStyle=orthogonalEdgeStyle;rounded=0;orthogonalLoop=1;jettySize=auto;html=1;" parent="1" source="g5eJ_ZQ_Ws9OvqG0GfGR-19" target="g5eJ_ZQ_Ws9OvqG0GfGR-3" edge="1">
          <mxGeometry relative="1" as="geometry" />
        </mxCell>
        <mxCell id="g5eJ_ZQ_Ws9OvqG0GfGR-19" value="Actor" style="shape=umlActor;verticalLabelPosition=bottom;verticalAlign=top;html=1;outlineConnect=0;" parent="1" vertex="1">
          <mxGeometry x="352" y="270" width="30" height="60" as="geometry" />
        </mxCell>
      </root>
    </mxGraphModel>
  </diagram>
</mxfile>
